<svg xmlns="http://www.w3.org/2000/svg" xmlns:xlink="http://www.w3.org/1999/xlink" id="Calque_1" viewBox="0 0 444.46 120.31" width="444.4599914550781" height="120.30999755859375"><defs><style>            .cls-1{fill:#000102;}.cls-1,.cls-2,.cls-3,.cls-4,.cls-5,.cls-6,.cls-7{stroke-width:0px;}.cls-8{clip-path:url(#clippath-2);}.cls-2{fill:#e30613;}.cls-3{fill:none;}.cls-9{clip-path:url(#clippath-1);}.cls-4{fill:#706f6f;}.cls-10{clip-path:url(#clippath);}.cls-11{clip-path:url(#clippath-3);}.cls-5{fill:#26358c;}.cls-6{fill:#9d9d9c;}.cls-7{fill:#273375;}        </style><clipPath id="clippath"><rect class="cls-3" y="5.93" width="140.24" height="108.45"></rect></clipPath><clipPath id="clippath-1"><rect class="cls-3" y="5.93" width="140.24" height="108.45"></rect></clipPath><clipPath id="clippath-2"><rect class="cls-3" x="151.84" y="0" width="292.62" height="120.31"></rect></clipPath><clipPath id="clippath-3"><rect class="cls-3" x="151.84" width="292.62" height="120.31"></rect></clipPath></defs><g class="cls-10"><polygon class="cls-5" points="11.94 18.2 30.89 18.2 30.89 23.77 24.48 23.77 24.48 57.21 18.35 57.21 18.35 23.77 11.94 23.77 11.94 18.2"></polygon><polygon class="cls-5" points="48.01 34.64 56.42 34.64 56.42 40.21 48.01 40.21 48.01 51.63 58.6 51.63 58.6 57.21 41.88 57.21 41.88 18.2 58.6 18.2 58.6 23.77 48.01 23.77 48.01 34.64"></polygon><path class="cls-5" d="m90.86,57.21h-6.19l-1.06-7.08h-7.52l-1.06,7.08h-5.63l6.24-39h8.97l6.24,39Zm-13.99-12.37h5.91l-2.95-19.73-2.95,19.73Z"></path><polygon class="cls-5" points="115.33 45.89 119.5 18.2 128.03 18.2 128.03 57.21 122.24 57.21 122.24 29.23 118 57.21 112.21 57.21 107.64 29.62 107.64 57.21 102.29 57.21 102.29 18.2 110.81 18.2 115.33 45.89"></polygon><polygon class="cls-5" points="21.94 73.54 26.68 73.54 26.68 76.88 21.94 76.88 21.94 86.52 18.27 86.52 18.27 63.16 27.98 63.16 27.98 66.5 21.94 66.5 21.94 73.54"></polygon><g class="cls-9"><path class="cls-5" d="m44.26,86.52c-.2-.6-.33-.97-.33-2.87v-3.67c0-2.17-.73-2.97-2.4-2.97h-1.27v9.51h-3.67v-23.36h5.54c3.8,0,5.44,1.77,5.44,5.37v1.84c0,2.4-.77,3.97-2.4,4.74,1.84.77,2.44,2.53,2.44,4.97v3.6c0,1.14.03,1.97.4,2.84h-3.74Zm-4-20.02v7.18h1.44c1.37,0,2.2-.6,2.2-2.47v-2.3c0-1.67-.57-2.4-1.87-2.4h-1.77Z"></path><path class="cls-5" d="m69.08,86.52h-3.7l-.63-4.24h-4.5l-.63,4.24h-3.37l3.74-23.36h5.37l3.74,23.36Zm-8.38-7.41h3.54l-1.77-11.81-1.77,11.81Z"></path><polygon class="cls-5" points="80.94 69.6 80.94 86.52 77.64 86.52 77.64 63.16 82.24 63.16 86.01 77.14 86.01 63.16 89.28 63.16 89.28 86.52 85.51 86.52 80.94 69.6"></polygon><path class="cls-5" d="m109.18,77.81v3.1c0,3.74-1.87,5.87-5.47,5.87s-5.47-2.14-5.47-5.87v-12.15c0-3.74,1.87-5.87,5.47-5.87s5.47,2.14,5.47,5.87v2.27h-3.47v-2.5c0-1.67-.73-2.3-1.9-2.3s-1.9.63-1.9,2.3v12.61c0,1.67.73,2.27,1.9,2.27s1.9-.6,1.9-2.27v-3.34h3.47Z"></path><polygon class="cls-5" points="121.69 73 126.73 73 126.73 76.34 121.69 76.34 121.69 83.18 128.03 83.18 128.03 86.52 118.02 86.52 118.02 63.16 128.03 63.16 128.03 66.5 121.69 66.5 121.69 73"></polygon><rect class="cls-5" x="18.25" y="100.51" width="29.98" height="1.32"></rect><rect class="cls-2" x="98.16" y="100.51" width="29.98" height="1.32"></rect><polygon class="cls-4" points="52.05 107.43 52.05 94.7 57.52 94.7 57.52 96.62 53.97 96.62 53.97 100.11 56.56 100.11 56.56 102.03 53.97 102.03 53.97 105.51 57.52 105.51 57.52 107.43 52.05 107.43"></polygon><polygon class="cls-4" points="65.91 107.43 63.85 107.43 62.38 103.38 60.9 107.43 58.84 107.43 61.33 101.02 58.84 94.7 60.96 94.7 62.38 98.62 63.79 94.7 65.91 94.7 63.42 101.02 65.91 107.43"></polygon><path class="cls-4" d="m70.53,94.7c.94,0,1.68.3,2.23.89.52.56.77,1.28.77,2.15v1.85c0,.84-.29,1.55-.88,2.15-.59.6-1.29.89-2.13.89h-1.11v4.8h-1.92v-12.73h3.02Zm1.15,3.07c0-.34-.1-.6-.3-.81-.2-.2-.46-.3-.8-.3h-1.16v4.07h1.16c.31,0,.56-.11.78-.32.21-.22.32-.48.32-.78v-1.86Z"></path><path class="cls-4" d="m77.89,94.54c.85,0,1.57.3,2.16.89.59.6.89,1.32.89,2.16v6.95c0,.85-.3,1.57-.89,2.16-.6.59-1.31.89-2.16.89s-1.56-.3-2.15-.89c-.59-.6-.88-1.31-.88-2.16v-6.95c0-.85.3-1.57.89-2.16.6-.59,1.31-.89,2.14-.89m1.05,3.02c0-.31-.11-.57-.32-.78-.21-.21-.47-.32-.78-.32s-.56.11-.78.32-.32.47-.32.78v6.97c0,.3.11.56.32.77s.48.32.78.32.57-.11.78-.32c.21-.21.32-.47.32-.77v-6.97Z"></path><path class="cls-4" d="m85.66,94.7c1.07,0,1.85.3,2.35.89.44.52.66,1.23.66,2.15v1.85c0,.9-.34,1.66-1.03,2.28l1.42,5.56h-2.07l-1.17-4.81c-.06,0-.11,0-.17,0h-1.1v4.8h-1.92v-12.73h3.02Zm1.15,3.07c0-.74-.36-1.11-1.09-1.11h-1.16v4.07h1.16c.31,0,.56-.11.78-.32.21-.22.32-.48.32-.78v-1.86Z"></path><polygon class="cls-4" points="92.13 96.62 90.09 96.62 90.09 94.7 96.08 94.7 96.08 96.62 94.05 96.62 94.05 107.43 92.13 107.43 92.13 96.62"></polygon></g></g><rect class="cls-6" x="151.84" y="18.19" width=".4" height="89.24"></rect><g class="cls-8"><g class="cls-11"><path class="cls-7" d="m207.26,77.15l10.86-10.86-12.28-12.28-10.86,10.86v-21.72h-.23c-9.5,0-17.2,7.71-17.2,17.23v27.22c0,3.86,3.12,6.98,6.97,6.98h27.26c9.5,0,17.2-7.71,17.2-17.23v-.2h-21.72Z"></path><path class="cls-2" d="m216.71,43.15l-10.86,10.86,12.28,12.28,10.86-10.86v21.72h.23c9.5,0,17.2-7.71,17.2-17.23v-27.22c0-3.86-3.12-6.98-6.97-6.98h-27.26c-9.5,0-17.2,7.71-17.2,17.23v.2h21.72Z"></path><path class="cls-1" d="m280.47,44.97c2.01-1.03,3.66-2.8,3.66-5.44,0-3.74-2.16-6.81-8.58-6.81h-11.7v25.6h12.09c6.69,0,9.37-3.11,9.37-7.09,0-3.23-2.48-5.32-4.84-6.26m-10.48-7.44h4.45c2.09,0,3.43.9,3.43,2.75s-1.34,2.8-3.43,2.8h-4.45v-5.55Zm5.4,15.99h-5.4v-6.14h5.4c2.28,0,3.82,1.26,3.82,3.11s-1.54,3.03-3.82,3.03"></path><path class="cls-1" d="m296.11,58.79c2.21,0,4.25-.87,5.83-2.21.79,1.46,3.03,2.21,4.72,2.21v-20.17h-6.07v11.27c0,2.21-1.42,3.74-3.54,3.74s-3.43-1.38-3.43-3.62v-11.38h-6.07v11.82c0,5.04,3.11,8.35,8.55,8.35"></path><path class="cls-1" d="m326.69,52.65c0-4.41-4.77-5.59-7.72-6.69-2.21-.83-3.07-1.22-3.07-2.13s.83-1.54,2.48-1.54,3.35.63,4.73,1.93h.43l2.68-2.36v-.43c-1.65-2.05-4.69-3.27-8.19-3.27-4.88,0-8.11,2.32-8.11,5.91,0,3.94,3.94,5.16,7.29,6.26,1.93.67,3.39,1.14,3.39,2.48,0,1.1-1.06,1.85-2.76,1.85-2.21,0-4.37-1.22-5.55-2.56h-.43l-2.76,2.48v.43c1.89,2.28,5.16,3.78,9.14,3.78,4.92,0,8.47-2.28,8.47-6.14"></path><rect class="cls-1" x="329.25" y="38.63" width="6.07" height="19.69"></rect><path class="cls-1" d="m344.93,47.1c0-2.21,1.42-3.78,3.7-3.78s3.58,1.58,3.58,3.78v11.23h6.1v-11.66c0-5.16-3.35-8.51-8.35-8.51-2.56,0-4.72.87-6.34,2.21-.79-1.46-2.99-2.21-4.8-2.21v20.17h6.1v-11.23Z"></path><path class="cls-1" d="m371.71,58.8c3.11,0,6.74-.99,8.94-3.59v-.43l-2.76-2.64h-.43c-1.3,1.42-3.39,2.16-5.48,2.16-2.76,0-5.2-1.38-5.55-4.33h15c.08-.51.12-1.03.12-1.62,0-5.95-4.18-10.2-10.44-10.2s-10.59,4.33-10.59,10.36c0,6.73,5.28,10.28,11.18,10.28m-.63-16.35c2.56,0,4.41,1.58,4.65,4.37h-9.33c.2-2.72,2.09-4.37,4.69-4.37"></path><path class="cls-1" d="m392.39,45.96c-2.21-.83-3.07-1.22-3.07-2.13s.83-1.54,2.48-1.54,3.35.63,4.72,1.93h.43l2.68-2.36v-.43c-1.65-2.05-4.69-3.27-8.19-3.27-4.89,0-8.11,2.32-8.11,5.91,0,3.94,3.94,5.16,7.29,6.26,1.93.67,3.39,1.14,3.39,2.48,0,1.1-1.06,1.85-2.76,1.85-2.21,0-4.37-1.22-5.55-2.56h-.43l-2.76,2.48v.43c1.89,2.29,5.16,3.78,9.14,3.78,4.92,0,8.47-2.29,8.47-6.15,0-4.41-4.77-5.59-7.72-6.69"></path><path class="cls-1" d="m411.02,45.96c-2.21-.83-3.07-1.22-3.07-2.13s.83-1.54,2.48-1.54,3.35.63,4.72,1.93h.43l2.68-2.36v-.43c-1.65-2.05-4.69-3.27-8.19-3.27-4.89,0-8.11,2.32-8.11,5.91,0,3.94,3.94,5.16,7.29,6.26,1.93.67,3.39,1.14,3.39,2.48,0,1.1-1.06,1.85-2.76,1.85-2.21,0-4.37-1.22-5.55-2.56h-.43l-2.76,2.48v.43c1.89,2.29,5.16,3.78,9.14,3.78,4.92,0,8.47-2.29,8.47-6.15,0-4.41-4.77-5.59-7.72-6.69"></path><polygon class="cls-1" points="263.85 87.58 269.99 87.58 269.99 77.26 278.97 77.26 278.97 72.49 269.99 72.49 269.99 67.02 281.73 67.02 281.73 61.98 263.85 61.98 263.85 87.58"></polygon><path class="cls-1" d="m298.39,68.24c-1.14-.55-2.28-.83-3.62-.83-2.21,0-4.21.9-5.67,2.44-.71-1.62-2.95-2.44-4.61-2.44v20.16h6.07v-10.75c0-2.76,1.69-4.25,3.74-4.25.98,0,1.69.16,2.68.63l.35-.2,1.26-4.33-.2-.43Z"></path><path class="cls-1" d="m307.72,67.41c-3.58,0-6.42,1.22-8.51,3.19v.43l2.72,2.6h.43c1.06-1.03,2.68-1.89,4.69-1.89,2.4,0,4.29,1.26,4.29,3.39v.87c-1.26-.43-2.68-.71-4.45-.71-4.84,0-8.86,2.01-8.86,6.3s3.7,6.46,7.99,6.46c2.6,0,4.84-.87,6.5-2.24.83,1.5,2.95,2.24,4.73,2.24v-13c0-5.59-4.96-7.64-9.53-7.64m3.62,13.43c0,1.85-1.77,3.35-3.98,3.35-1.73,0-3.35-.94-3.35-2.64s1.38-2.72,3.82-2.72c1.46,0,2.76.39,3.51.67v1.34Z"></path><path class="cls-1" d="m353.33,67.41c-6.26,0-10.87,4.37-10.87,10.32s4.61,10.32,10.87,10.32c3.62,0,6.38-1.5,8.15-3.47v-.43l-3.39-3.11h-.47c-.98,1.22-2.44,1.81-4.02,1.81-3.03,0-4.96-2.13-4.96-5.12s2.01-5.12,4.92-5.12c1.65,0,3.07.67,4.06,1.81h.47l3.39-3.11v-.43c-1.77-1.97-4.53-3.47-8.15-3.47"></path><path class="cls-1" d="m372.67,67.41c-6.34,0-10.6,4.33-10.6,10.36,0,6.74,5.28,10.28,11.19,10.28,3.11,0,6.73-.98,8.94-3.58v-.43l-2.76-2.64h-.43c-1.3,1.42-3.39,2.17-5.48,2.17-2.76,0-5.2-1.38-5.55-4.33h15.01c.08-.51.12-1.02.12-1.62,0-5.95-4.17-10.2-10.44-10.2m-4.73,8.66c.2-2.72,2.09-4.37,4.69-4.37s4.41,1.58,4.65,4.37h-9.34Z"></path><path class="cls-1" d="m331.91,67.41c-2.56,0-4.73.87-6.34,2.21-.79-1.46-3-2.21-4.8-2.21v20.17h6.1v-11.23c0-2.21,1.42-3.78,3.7-3.78s3.58,1.58,3.58,3.78v11.23h6.1v-11.66c0-5.16-3.35-8.51-8.35-8.51"></path><path class="cls-1" d="m332.27,36.37c1.95,0,3.53-1.54,3.53-3.49s-1.58-3.53-3.53-3.53-3.49,1.58-3.49,3.53,1.54,3.49,3.49,3.49"></path></g></g></svg>